<mxfile host="app.diagrams.net" agent="Mozilla/5.0 (Windows NT 10.0; Win64; x64) AppleWebKit/537.36 (KHTML, like Gecko) Chrome/133.0.0.0 Safari/537.36" version="26.0.15">
  <diagram name="Page-1" id="2YBvvXClWsGukQMizWep">
    <mxGraphModel dx="1195" dy="658" grid="1" gridSize="10" guides="1" tooltips="1" connect="1" arrows="1" fold="1" page="1" pageScale="1" pageWidth="850" pageHeight="1100" math="0" shadow="0">
      <root>
        <mxCell id="0" />
        <mxCell id="1" parent="0" />
        <mxCell id="hk3Wu6Kk-3F1sT6hJWL1-86" value="" style="whiteSpace=wrap;html=1;aspect=fixed;" vertex="1" parent="1">
          <mxGeometry x="50" y="60" width="590" height="590" as="geometry" />
        </mxCell>
        <mxCell id="hk3Wu6Kk-3F1sT6hJWL1-65" value="&lt;font style=&quot;font-size: 10px;&quot;&gt;[check sentiment]&lt;/font&gt;" style="text;html=1;align=center;verticalAlign=middle;resizable=0;points=[];autosize=1;strokeColor=none;fillColor=none;" vertex="1" parent="1">
          <mxGeometry x="310" y="340" width="100" height="30" as="geometry" />
        </mxCell>
        <mxCell id="hk3Wu6Kk-3F1sT6hJWL1-64" value="frame" style="shape=umlFrame;whiteSpace=wrap;html=1;pointerEvents=0;" vertex="1" parent="1">
          <mxGeometry x="260" y="340" width="280" height="120" as="geometry" />
        </mxCell>
        <mxCell id="hk3Wu6Kk-3F1sT6hJWL1-41" value="Lifeline1" style="shape=umlLifeline;perimeter=lifelinePerimeter;whiteSpace=wrap;html=1;container=1;dropTarget=0;collapsible=0;recursiveResize=0;outlineConnect=0;portConstraint=eastwest;newEdgeStyle={&quot;edgeStyle&quot;:&quot;elbowEdgeStyle&quot;,&quot;elbow&quot;:&quot;vertical&quot;,&quot;curved&quot;:0,&quot;rounded&quot;:0};" vertex="1" parent="1">
          <mxGeometry x="100" y="100" width="100" height="300" as="geometry" />
        </mxCell>
        <mxCell id="hk3Wu6Kk-3F1sT6hJWL1-42" value="Lifeline2" style="shape=umlLifeline;perimeter=lifelinePerimeter;whiteSpace=wrap;html=1;container=1;dropTarget=0;collapsible=0;recursiveResize=0;outlineConnect=0;portConstraint=eastwest;newEdgeStyle={&quot;edgeStyle&quot;:&quot;elbowEdgeStyle&quot;,&quot;elbow&quot;:&quot;vertical&quot;,&quot;curved&quot;:0,&quot;rounded&quot;:0};" vertex="1" parent="1">
          <mxGeometry x="220" y="100" width="100" height="300" as="geometry" />
        </mxCell>
        <mxCell id="hk3Wu6Kk-3F1sT6hJWL1-43" value="Frontend" style="shape=umlLifeline;perimeter=lifelinePerimeter;whiteSpace=wrap;html=1;container=1;dropTarget=0;collapsible=0;recursiveResize=0;outlineConnect=0;portConstraint=eastwest;newEdgeStyle={&quot;edgeStyle&quot;:&quot;elbowEdgeStyle&quot;,&quot;elbow&quot;:&quot;vertical&quot;,&quot;curved&quot;:0,&quot;rounded&quot;:0};" vertex="1" parent="1">
          <mxGeometry x="100" y="100" width="100" height="510" as="geometry" />
        </mxCell>
        <mxCell id="hk3Wu6Kk-3F1sT6hJWL1-47" value="" style="html=1;points=[[0,0,0,0,5],[0,1,0,0,-5],[1,0,0,0,5],[1,1,0,0,-5]];perimeter=orthogonalPerimeter;outlineConnect=0;targetShapes=umlLifeline;portConstraint=eastwest;newEdgeStyle={&quot;curved&quot;:0,&quot;rounded&quot;:0};" vertex="1" parent="hk3Wu6Kk-3F1sT6hJWL1-43">
          <mxGeometry x="45" y="50" width="10" height="40" as="geometry" />
        </mxCell>
        <mxCell id="hk3Wu6Kk-3F1sT6hJWL1-83" value="" style="html=1;points=[[0,0,0,0,5],[0,1,0,0,-5],[1,0,0,0,5],[1,1,0,0,-5]];perimeter=orthogonalPerimeter;outlineConnect=0;targetShapes=umlLifeline;portConstraint=eastwest;newEdgeStyle={&quot;curved&quot;:0,&quot;rounded&quot;:0};" vertex="1" parent="hk3Wu6Kk-3F1sT6hJWL1-43">
          <mxGeometry x="45" y="450" width="10" height="40" as="geometry" />
        </mxCell>
        <mxCell id="hk3Wu6Kk-3F1sT6hJWL1-44" value="Backend" style="shape=umlLifeline;perimeter=lifelinePerimeter;whiteSpace=wrap;html=1;container=1;dropTarget=0;collapsible=0;recursiveResize=0;outlineConnect=0;portConstraint=eastwest;newEdgeStyle={&quot;edgeStyle&quot;:&quot;elbowEdgeStyle&quot;,&quot;elbow&quot;:&quot;vertical&quot;,&quot;curved&quot;:0,&quot;rounded&quot;:0};" vertex="1" parent="1">
          <mxGeometry x="220" y="100" width="100" height="520" as="geometry" />
        </mxCell>
        <mxCell id="hk3Wu6Kk-3F1sT6hJWL1-48" value="" style="html=1;points=[[0,0,0,0,5],[0,1,0,0,-5],[1,0,0,0,5],[1,1,0,0,-5]];perimeter=orthogonalPerimeter;outlineConnect=0;targetShapes=umlLifeline;portConstraint=eastwest;newEdgeStyle={&quot;curved&quot;:0,&quot;rounded&quot;:0};" vertex="1" parent="hk3Wu6Kk-3F1sT6hJWL1-44">
          <mxGeometry x="45" y="50" width="10" height="40" as="geometry" />
        </mxCell>
        <mxCell id="hk3Wu6Kk-3F1sT6hJWL1-51" value="" style="html=1;points=[[0,0,0,0,5],[0,1,0,0,-5],[1,0,0,0,5],[1,1,0,0,-5]];perimeter=orthogonalPerimeter;outlineConnect=0;targetShapes=umlLifeline;portConstraint=eastwest;newEdgeStyle={&quot;curved&quot;:0,&quot;rounded&quot;:0};" vertex="1" parent="hk3Wu6Kk-3F1sT6hJWL1-44">
          <mxGeometry x="45" y="110" width="10" height="40" as="geometry" />
        </mxCell>
        <mxCell id="hk3Wu6Kk-3F1sT6hJWL1-55" value="" style="html=1;points=[[0,0,0,0,5],[0,1,0,0,-5],[1,0,0,0,5],[1,1,0,0,-5]];perimeter=orthogonalPerimeter;outlineConnect=0;targetShapes=umlLifeline;portConstraint=eastwest;newEdgeStyle={&quot;curved&quot;:0,&quot;rounded&quot;:0};" vertex="1" parent="hk3Wu6Kk-3F1sT6hJWL1-44">
          <mxGeometry x="45" y="150" width="10" height="40" as="geometry" />
        </mxCell>
        <mxCell id="hk3Wu6Kk-3F1sT6hJWL1-59" value="" style="html=1;points=[[0,0,0,0,5],[0,1,0,0,-5],[1,0,0,0,5],[1,1,0,0,-5]];perimeter=orthogonalPerimeter;outlineConnect=0;targetShapes=umlLifeline;portConstraint=eastwest;newEdgeStyle={&quot;curved&quot;:0,&quot;rounded&quot;:0};" vertex="1" parent="hk3Wu6Kk-3F1sT6hJWL1-44">
          <mxGeometry x="45" y="190" width="10" height="40" as="geometry" />
        </mxCell>
        <mxCell id="hk3Wu6Kk-3F1sT6hJWL1-66" value="" style="html=1;points=[[0,0,0,0,5],[0,1,0,0,-5],[1,0,0,0,5],[1,1,0,0,-5]];perimeter=orthogonalPerimeter;outlineConnect=0;targetShapes=umlLifeline;portConstraint=eastwest;newEdgeStyle={&quot;curved&quot;:0,&quot;rounded&quot;:0};" vertex="1" parent="hk3Wu6Kk-3F1sT6hJWL1-44">
          <mxGeometry x="45" y="270" width="10" height="40" as="geometry" />
        </mxCell>
        <mxCell id="hk3Wu6Kk-3F1sT6hJWL1-67" style="edgeStyle=orthogonalEdgeStyle;rounded=0;orthogonalLoop=1;jettySize=auto;html=1;curved=0;" edge="1" parent="hk3Wu6Kk-3F1sT6hJWL1-44" source="hk3Wu6Kk-3F1sT6hJWL1-66" target="hk3Wu6Kk-3F1sT6hJWL1-66">
          <mxGeometry relative="1" as="geometry" />
        </mxCell>
        <mxCell id="hk3Wu6Kk-3F1sT6hJWL1-70" value="" style="html=1;points=[[0,0,0,0,5],[0,1,0,0,-5],[1,0,0,0,5],[1,1,0,0,-5]];perimeter=orthogonalPerimeter;outlineConnect=0;targetShapes=umlLifeline;portConstraint=eastwest;newEdgeStyle={&quot;curved&quot;:0,&quot;rounded&quot;:0};" vertex="1" parent="hk3Wu6Kk-3F1sT6hJWL1-44">
          <mxGeometry x="45" y="370" width="10" height="40" as="geometry" />
        </mxCell>
        <mxCell id="hk3Wu6Kk-3F1sT6hJWL1-77" value="" style="html=1;points=[[0,0,0,0,5],[0,1,0,0,-5],[1,0,0,0,5],[1,1,0,0,-5]];perimeter=orthogonalPerimeter;outlineConnect=0;targetShapes=umlLifeline;portConstraint=eastwest;newEdgeStyle={&quot;curved&quot;:0,&quot;rounded&quot;:0};" vertex="1" parent="hk3Wu6Kk-3F1sT6hJWL1-44">
          <mxGeometry x="45" y="410" width="10" height="40" as="geometry" />
        </mxCell>
        <mxCell id="hk3Wu6Kk-3F1sT6hJWL1-82" value="" style="html=1;points=[[0,0,0,0,5],[0,1,0,0,-5],[1,0,0,0,5],[1,1,0,0,-5]];perimeter=orthogonalPerimeter;outlineConnect=0;targetShapes=umlLifeline;portConstraint=eastwest;newEdgeStyle={&quot;curved&quot;:0,&quot;rounded&quot;:0};" vertex="1" parent="hk3Wu6Kk-3F1sT6hJWL1-44">
          <mxGeometry x="45" y="450" width="10" height="40" as="geometry" />
        </mxCell>
        <mxCell id="hk3Wu6Kk-3F1sT6hJWL1-45" value="Database" style="shape=umlLifeline;perimeter=lifelinePerimeter;whiteSpace=wrap;html=1;container=1;dropTarget=0;collapsible=0;recursiveResize=0;outlineConnect=0;portConstraint=eastwest;newEdgeStyle={&quot;edgeStyle&quot;:&quot;elbowEdgeStyle&quot;,&quot;elbow&quot;:&quot;vertical&quot;,&quot;curved&quot;:0,&quot;rounded&quot;:0};" vertex="1" parent="1">
          <mxGeometry x="350" y="100" width="100" height="510" as="geometry" />
        </mxCell>
        <mxCell id="hk3Wu6Kk-3F1sT6hJWL1-52" value="" style="html=1;points=[[0,0,0,0,5],[0,1,0,0,-5],[1,0,0,0,5],[1,1,0,0,-5]];perimeter=orthogonalPerimeter;outlineConnect=0;targetShapes=umlLifeline;portConstraint=eastwest;newEdgeStyle={&quot;curved&quot;:0,&quot;rounded&quot;:0};" vertex="1" parent="hk3Wu6Kk-3F1sT6hJWL1-45">
          <mxGeometry x="45" y="110" width="10" height="40" as="geometry" />
        </mxCell>
        <mxCell id="hk3Wu6Kk-3F1sT6hJWL1-54" value="" style="html=1;points=[[0,0,0,0,5],[0,1,0,0,-5],[1,0,0,0,5],[1,1,0,0,-5]];perimeter=orthogonalPerimeter;outlineConnect=0;targetShapes=umlLifeline;portConstraint=eastwest;newEdgeStyle={&quot;curved&quot;:0,&quot;rounded&quot;:0};" vertex="1" parent="hk3Wu6Kk-3F1sT6hJWL1-45">
          <mxGeometry x="45" y="150" width="10" height="40" as="geometry" />
        </mxCell>
        <mxCell id="hk3Wu6Kk-3F1sT6hJWL1-71" value="" style="html=1;points=[[0,0,0,0,5],[0,1,0,0,-5],[1,0,0,0,5],[1,1,0,0,-5]];perimeter=orthogonalPerimeter;outlineConnect=0;targetShapes=umlLifeline;portConstraint=eastwest;newEdgeStyle={&quot;curved&quot;:0,&quot;rounded&quot;:0};" vertex="1" parent="hk3Wu6Kk-3F1sT6hJWL1-45">
          <mxGeometry x="45" y="370" width="10" height="40" as="geometry" />
        </mxCell>
        <mxCell id="hk3Wu6Kk-3F1sT6hJWL1-78" value="" style="html=1;points=[[0,0,0,0,5],[0,1,0,0,-5],[1,0,0,0,5],[1,1,0,0,-5]];perimeter=orthogonalPerimeter;outlineConnect=0;targetShapes=umlLifeline;portConstraint=eastwest;newEdgeStyle={&quot;curved&quot;:0,&quot;rounded&quot;:0};" vertex="1" parent="hk3Wu6Kk-3F1sT6hJWL1-45">
          <mxGeometry x="45" y="410" width="10" height="40" as="geometry" />
        </mxCell>
        <mxCell id="hk3Wu6Kk-3F1sT6hJWL1-46" value="Model" style="shape=umlLifeline;perimeter=lifelinePerimeter;whiteSpace=wrap;html=1;container=1;dropTarget=0;collapsible=0;recursiveResize=0;outlineConnect=0;portConstraint=eastwest;newEdgeStyle={&quot;edgeStyle&quot;:&quot;elbowEdgeStyle&quot;,&quot;elbow&quot;:&quot;vertical&quot;,&quot;curved&quot;:0,&quot;rounded&quot;:0};" vertex="1" parent="1">
          <mxGeometry x="470" y="100" width="100" height="510" as="geometry" />
        </mxCell>
        <mxCell id="hk3Wu6Kk-3F1sT6hJWL1-60" value="" style="html=1;points=[[0,0,0,0,5],[0,1,0,0,-5],[1,0,0,0,5],[1,1,0,0,-5]];perimeter=orthogonalPerimeter;outlineConnect=0;targetShapes=umlLifeline;portConstraint=eastwest;newEdgeStyle={&quot;curved&quot;:0,&quot;rounded&quot;:0};" vertex="1" parent="hk3Wu6Kk-3F1sT6hJWL1-46">
          <mxGeometry x="45" y="190" width="10" height="40" as="geometry" />
        </mxCell>
        <mxCell id="hk3Wu6Kk-3F1sT6hJWL1-49" style="edgeStyle=orthogonalEdgeStyle;rounded=0;orthogonalLoop=1;jettySize=auto;html=1;curved=0;" edge="1" parent="1" source="hk3Wu6Kk-3F1sT6hJWL1-47" target="hk3Wu6Kk-3F1sT6hJWL1-48">
          <mxGeometry relative="1" as="geometry" />
        </mxCell>
        <mxCell id="hk3Wu6Kk-3F1sT6hJWL1-50" value="&lt;font style=&quot;font-size: 9px;&quot;&gt;Request Music&lt;/font&gt;" style="text;html=1;align=center;verticalAlign=middle;resizable=0;points=[];autosize=1;strokeColor=none;fillColor=none;" vertex="1" parent="1">
          <mxGeometry x="170" y="148" width="80" height="30" as="geometry" />
        </mxCell>
        <mxCell id="hk3Wu6Kk-3F1sT6hJWL1-53" style="edgeStyle=orthogonalEdgeStyle;rounded=0;orthogonalLoop=1;jettySize=auto;html=1;curved=0;" edge="1" parent="1" source="hk3Wu6Kk-3F1sT6hJWL1-51" target="hk3Wu6Kk-3F1sT6hJWL1-52">
          <mxGeometry relative="1" as="geometry" />
        </mxCell>
        <mxCell id="hk3Wu6Kk-3F1sT6hJWL1-56" style="edgeStyle=orthogonalEdgeStyle;rounded=0;orthogonalLoop=1;jettySize=auto;html=1;curved=0;" edge="1" parent="1" source="hk3Wu6Kk-3F1sT6hJWL1-54" target="hk3Wu6Kk-3F1sT6hJWL1-55">
          <mxGeometry relative="1" as="geometry" />
        </mxCell>
        <mxCell id="hk3Wu6Kk-3F1sT6hJWL1-57" value="&lt;font style=&quot;font-size: 9px;&quot;&gt;Get five messages&lt;/font&gt;" style="text;html=1;align=center;verticalAlign=middle;resizable=0;points=[];autosize=1;strokeColor=none;fillColor=none;" vertex="1" parent="1">
          <mxGeometry x="285" y="200" width="100" height="30" as="geometry" />
        </mxCell>
        <mxCell id="hk3Wu6Kk-3F1sT6hJWL1-58" value="&lt;font style=&quot;font-size: 9px;&quot;&gt;Return five messages&lt;/font&gt;" style="text;html=1;align=center;verticalAlign=middle;resizable=0;points=[];autosize=1;strokeColor=none;fillColor=none;" vertex="1" parent="1">
          <mxGeometry x="280" y="240" width="110" height="30" as="geometry" />
        </mxCell>
        <mxCell id="hk3Wu6Kk-3F1sT6hJWL1-61" style="edgeStyle=orthogonalEdgeStyle;rounded=0;orthogonalLoop=1;jettySize=auto;html=1;curved=0;" edge="1" parent="1" source="hk3Wu6Kk-3F1sT6hJWL1-59" target="hk3Wu6Kk-3F1sT6hJWL1-60">
          <mxGeometry relative="1" as="geometry" />
        </mxCell>
        <mxCell id="hk3Wu6Kk-3F1sT6hJWL1-63" value="&lt;font style=&quot;font-size: 9px;&quot;&gt;Send messages for&lt;/font&gt;&lt;div&gt;&lt;font style=&quot;font-size: 9px;&quot;&gt;prediction&lt;/font&gt;&lt;/div&gt;" style="text;html=1;align=center;verticalAlign=middle;resizable=0;points=[];autosize=1;strokeColor=none;fillColor=none;" vertex="1" parent="1">
          <mxGeometry x="405" y="275" width="100" height="40" as="geometry" />
        </mxCell>
        <mxCell id="hk3Wu6Kk-3F1sT6hJWL1-69" value="&lt;font style=&quot;font-size: 9px;&quot;&gt;Text Processing&lt;/font&gt;" style="text;html=1;align=center;verticalAlign=middle;resizable=0;points=[];autosize=1;strokeColor=none;fillColor=none;" vertex="1" parent="1">
          <mxGeometry x="290" y="380" width="90" height="30" as="geometry" />
        </mxCell>
        <mxCell id="hk3Wu6Kk-3F1sT6hJWL1-72" style="edgeStyle=orthogonalEdgeStyle;rounded=0;orthogonalLoop=1;jettySize=auto;html=1;curved=0;" edge="1" parent="1" source="hk3Wu6Kk-3F1sT6hJWL1-70" target="hk3Wu6Kk-3F1sT6hJWL1-71">
          <mxGeometry relative="1" as="geometry" />
        </mxCell>
        <mxCell id="hk3Wu6Kk-3F1sT6hJWL1-74" value="&lt;font style=&quot;font-size: 9px;&quot;&gt;Get Chosen Music Genre&lt;/font&gt;" style="text;html=1;align=center;verticalAlign=middle;resizable=0;points=[];autosize=1;strokeColor=none;fillColor=none;" vertex="1" parent="1">
          <mxGeometry x="270" y="460" width="130" height="30" as="geometry" />
        </mxCell>
        <mxCell id="hk3Wu6Kk-3F1sT6hJWL1-80" style="edgeStyle=orthogonalEdgeStyle;rounded=0;orthogonalLoop=1;jettySize=auto;html=1;curved=0;" edge="1" parent="1" source="hk3Wu6Kk-3F1sT6hJWL1-78" target="hk3Wu6Kk-3F1sT6hJWL1-77">
          <mxGeometry relative="1" as="geometry" />
        </mxCell>
        <mxCell id="hk3Wu6Kk-3F1sT6hJWL1-81" value="&lt;span style=&quot;font-size: 9px;&quot;&gt;Return Music Genre&lt;/span&gt;" style="text;html=1;align=center;verticalAlign=middle;resizable=0;points=[];autosize=1;strokeColor=none;fillColor=none;" vertex="1" parent="1">
          <mxGeometry x="285" y="498" width="100" height="30" as="geometry" />
        </mxCell>
        <mxCell id="hk3Wu6Kk-3F1sT6hJWL1-84" style="edgeStyle=orthogonalEdgeStyle;rounded=0;orthogonalLoop=1;jettySize=auto;html=1;curved=0;" edge="1" parent="1" source="hk3Wu6Kk-3F1sT6hJWL1-82" target="hk3Wu6Kk-3F1sT6hJWL1-83">
          <mxGeometry relative="1" as="geometry" />
        </mxCell>
        <mxCell id="hk3Wu6Kk-3F1sT6hJWL1-85" value="&lt;span style=&quot;font-size: 9px;&quot;&gt;Send music suggestions&lt;/span&gt;" style="text;html=1;align=center;verticalAlign=middle;resizable=0;points=[];autosize=1;strokeColor=none;fillColor=none;" vertex="1" parent="1">
          <mxGeometry x="150" y="540" width="120" height="30" as="geometry" />
        </mxCell>
        <mxCell id="hk3Wu6Kk-3F1sT6hJWL1-87" value="Music Recommendation System" style="text;html=1;align=center;verticalAlign=middle;resizable=0;points=[];autosize=1;strokeColor=none;fillColor=none;" vertex="1" parent="1">
          <mxGeometry x="235" y="60" width="200" height="30" as="geometry" />
        </mxCell>
      </root>
    </mxGraphModel>
  </diagram>
</mxfile>
